<?xml version="1.0" encoding="UTF-8"?>
<svg id="svg1" xmlns="http://www.w3.org/2000/svg" viewBox="0 0 276.89 271.79">
  <defs>
    <style>
      .cls-1 {
        fill: #f7a653;
      }

      .cls-2 {
        fill: #fe9e30;
      }

      .cls-3 {
        fill: #f99f2e;
      }

      .cls-4 {
        fill: #efa656;
      }

      .cls-5 {
        fill: #ffca35;
      }

      .cls-6 {
        fill: #f4a950;
      }
    </style>
  </defs>
  <path class="cls-6" d="M148.78,270.34c-3.73-2.03-5.28-6.48-4.52-12.95.35-2.96.88-6.03,1.19-6.83.36-.95-.52-1.89-2.58-2.74-6.3-2.61-5.9-10.65.79-15.75,5.05-3.85,14.36-3.78,26.24.18,5.91,1.97,11.32,2.98,17.75,3.33,10.58.56,10.7.71,7.19,8.89-4.7,10.97-14.34,20.1-26.11,24.74-7.5,2.95-15.72,3.42-19.94,1.13Z"/>
  <path class="cls-2" d="M96.14,237.77c-10.54-1.02-22.99-4.21-31.11-7.98-3.5-1.62-6.58-2.95-6.84-2.95s-.17,2.3.22,5.1l.7,5.1-3.36-.73c-4.38-.95-7.53-3.24-13.7-10-5.07-5.54-15.83-19.99-18.05-24.23-1.91-3.65-3.8-2.68-5.07,2.58-1.24,5.17-4.42,11.17-5.93,11.17-2.49,0-8.69-15.76-11.6-29.51-3.09-14.59-1.07-26.83,5.93-36.01,5.33-6.99,17.62-11.77,30.55-11.9l8.5-.08.18,8.85c.23,10.95,2.92,20.29,8.55,29.69,3.7,6.18,13.96,17.69,12.44,13.96-10.52-25.82-13.38-35.74-12.41-43.01.63-4.69,4.16-10.07,8.61-13.11,4.86-3.32,17.46-3.3,23.96.03,15.23,7.8,24.45,24.82,28.69,53,1.58,10.49,1.88,18.11.71,18.05-.41-.02-1.88-.68-3.25-1.46-3.34-1.91-7-1.9-7,0,0,.83,2.24,5.94,4.98,11.36,4.94,9.77,7.72,18.86,6.64,21.67-.63,1.64-8.06,1.77-22.38.39h0Z"/>
  <circle class="cls-4" cx="71.39" cy="195.34" r=".5"/>
  <path class="cls-5" d="M147.89,204.2c-6.34-2.07-9-3.8-9-5.87,0-3.35,4.14-12.62,5.4-12.08,14.58,6.27,22.39,2.64,10.92-5.08-7.54-5.08-9.55-8.01-10.11-14.8-.62-7.5,2.65-12.66,10.23-16.13l5.29-2.42,40.79.26c35.37.23,40.82.46,40.99,1.76.11.82.52,5.55.9,10.5.82,10.51,1.43,13.5,2.78,13.5.54,0,1.49-1.35,2.11-3s1.48-3,1.91-3,.78-.67.78-1.49,1.9-5.32,4.22-10l4.22-8.51h8.78c6.74,0,8.78.32,8.78,1.36,0,.75-2.01,5.14-4.47,9.75s-8.65,16.6-13.75,26.63l-9.28,18.24h-8.7s-8.7.02-8.7.02l-.53-3.25c-.29-1.79-1.43-10.65-2.53-19.68-1.24-10.18-2.48-16.74-3.26-17.23-2.04-1.3-12.41-.97-13.49.42-.53.69-2.21,7.77-3.72,15.75s-3.19,16.64-3.74,19.25l-.99,4.75h-7.86c-4.32,0-8.07-.35-8.34-.77-.26-.43,1.12-8.94,3.07-18.93s3.27-18.9,2.92-19.8c-.55-1.44-2.38-1.6-14.59-1.32-17.31.4-18.62,1.21-10.35,6.38,8.06,5.04,10.52,8.81,10.44,15.98-.1,8.63-4.54,14.62-13.17,17.8-4.22,1.55-14.54,2.14-17.97,1.02h0Z"/>
  <path class="cls-3" d="M246.64,142.54c-4.27-12.81-3.54-17.11,2.52-14.92,1.86.67,5.05,1.22,7.09,1.22,4.65,0,5.39,1.68,3.19,7.17-1.82,4.56-8.35,14.84-9.39,14.8-.36-.01-1.89-3.74-3.4-8.28Z"/>
  <path class="cls-5" d="M148.39,131.17c-8.02-1-7.84-.81-7.14-7.53.84-8.06,1.54-8.77,8.02-8.1,5.21.54,5.29.5,6.82-2.83,1.86-4.05,5.32-21.68,4.43-22.57-.35-.35-5.36-.74-11.15-.87-11.23-.26-12.98.35-13.95,4.89-1.04,4.88-4.42,23.48-5.03,27.68-1.21,8.35-.8,8-9.41,8-4.27,0-8-.24-8.29-.52-.6-.6,1.16-12.11,4.15-27.3,1.12-5.68,2.04-10.68,2.04-11.12-13.33-4.15-13.92,1.52-9.83-17.06,18.05.06,94.7-.31,99.24.85.29.47-.82,7.78-2.46,16.25-4.34,22.42-4.24,24.9,1.04,24.9,5.6,0,6.82-2.71,10.93-24.29,1.65-8.68,3.28-16.22,3.6-16.75.97-1.57,15.17-1.21,15.78.39,0,5.34-5.23,39.92-12.88,48.46-10.16,11.87-32.44,9.89-37.43-3.31-3.03-6.66,1.41-22.21,1.01-30.61l-9.46.61c-4.31,18.47-4.75,44.76-30.04,40.83Z"/>
  <path class="cls-1" d="M37.88,117.09c-1.95-9.77-3-13.17-6.64-21.45-11.33-25.76-11.18-41.26.46-46.99,6.15-3.03,13.94-3.14,17.82-.24,1.53,1.14,4.23,4.18,6.01,6.76s3.46,4.32,3.75,3.86,1.43-4.13,2.54-8.15,2.27-7.56,2.56-7.85,2.99-.73,6.01-.98c4.02-.33,6.16-.01,8.01,1.2,2.41,1.58,2.46,1.78,1.01,4.57-.83,1.61-1.51,3.62-1.51,4.47,0,1.33.51,1.28,3.6-.38,4.06-2.18,5.71-1.88,9.62,1.74,7.5,6.93,6.54,24.66-1.94,35.99-7.97,10.64-17.56,18.81-30.54,26.02l-5.75,3.19v-7.82c0-5.07-.49-8.48-1.38-9.7-1.25-1.72-1.62-1.12-3.98,6.56-2.65,8.6-5.85,14.95-7.56,14.95-.52,0-1.46-2.59-2.09-5.75Z"/>
  <path class="cls-4" d="M70.56,47.18c-.37-.37-.97-.37-1.33,0-.37.37-.07.67.67.67s1.03-.3.67-.67Z"/>
  <path class="cls-1" d="M122.46,50.62c-1.24-9.46-4.62-12.02-9.6-7.26l-2.63,2.52-5.01-5.77c-2.76-3.18-5.53-6.75-6.16-7.93-1.06-1.99-.82-2.26,3.08-3.5,4.99-1.58,6.52-4.84,2.27-4.84-1.44,0-3.94-.68-5.54-1.51-2.93-1.51-7.98-7.92-7.98-10.13,0-.8,3.15-1.29,9.75-1.52,10.91-.38,16.72-2.49,22.14-8.04,2.56-2.62,3.49-2.98,6.27-2.42,4.47.89,8.84,5.26,8.84,8.84,0,1.56-.68,4.46-1.5,6.44-2.13,5.09-1.99,5.35,2.85,5.35s7.65,2.18,7.65,6.31c0,1.73-.88,3.22-2.52,4.3-2.11,1.38-2.42,2.17-1.91,4.89.55,2.94.26,3.45-3.23,5.57-2.11,1.29-6.59,4.96-9.95,8.17l-6.12,5.83-.69-5.28Z"/>
  <path class="cls-4" d="M132.39,11.84c.34-.55.14-1-.44-1s-1.06.45-1.06,1,.2,1,.44,1,.72-.45,1.06-1Z"/>
  <path class="cls-4" d="M130.56,6.18c-.37-.37-.67-.07-.67.67s.3,1.03.67.67c.37-.37.37-.97,0-1.33Z"/>
  <path class="cls-1" d="M165.39,37.84c-.34-.55-.22-1,.27-1,1.9,0,10.03-6.14,10.5-7.94.58-2.22-.96-4.06-3.38-4.06-2.67,0-1.59-3.44,1.2-3.85,5.88-.84,6.31-4.04,1.41-10.45-1.93-2.52-3.13-4.81-2.68-5.09,1.77-1.09,11,4.29,13.77,8.03,1.57,2.12,4.22,5.09,5.88,6.6l3.03,2.74-2.76,2.26c-1.52,1.24-4.89,4.02-7.49,6.16-2.6,2.15-6.54,4.73-8.74,5.73-4.39,1.99-10.03,2.44-11.01.86Z"/>
  <circle class="cls-4" cx="187.39" cy="23.34" r=".5"/>
</svg>